<mxfile host="app.diagrams.net" modified="2022-04-07T12:49:47.879Z" agent="5.0 (Windows NT 10.0; Win64; x64) AppleWebKit/537.36 (KHTML, like Gecko) Chrome/99.0.4844.84 Safari/537.36" etag="7JVTxLirzMnvqm0CsmhI" version="17.1.2" type="github">
  <diagram id="prtHgNgQTEPvFCAcTncT" name="Page-1">
    <mxGraphModel dx="2889" dy="1154" grid="1" gridSize="10" guides="1" tooltips="1" connect="1" arrows="1" fold="1" page="1" pageScale="1" pageWidth="827" pageHeight="1169" math="0" shadow="0">
      <root>
        <mxCell id="0" />
        <mxCell id="1" parent="0" />
        <mxCell id="CKBYRObzCNReHmb8ViOX-1" value="c" style="edgeStyle=orthogonalEdgeStyle;rounded=0;orthogonalLoop=1;jettySize=auto;html=1;entryX=0;entryY=0.5;entryDx=0;entryDy=0;" edge="1" parent="1" source="CKBYRObzCNReHmb8ViOX-2" target="CKBYRObzCNReHmb8ViOX-3">
          <mxGeometry relative="1" as="geometry" />
        </mxCell>
        <mxCell id="CKBYRObzCNReHmb8ViOX-2" value="Trino" style="rounded=1;whiteSpace=wrap;html=1;" vertex="1" parent="1">
          <mxGeometry x="520" y="640" width="100" height="40" as="geometry" />
        </mxCell>
        <mxCell id="CKBYRObzCNReHmb8ViOX-3" value="STS-JDBC" style="rounded=1;whiteSpace=wrap;html=1;" vertex="1" parent="1">
          <mxGeometry x="690" y="560" width="100" height="40" as="geometry" />
        </mxCell>
        <mxCell id="CKBYRObzCNReHmb8ViOX-4" value="" style="edgeStyle=orthogonalEdgeStyle;rounded=0;orthogonalLoop=1;jettySize=auto;html=1;" edge="1" parent="1" source="CKBYRObzCNReHmb8ViOX-6" target="CKBYRObzCNReHmb8ViOX-14">
          <mxGeometry relative="1" as="geometry">
            <Array as="points">
              <mxPoint x="130" y="500" />
              <mxPoint x="130" y="500" />
            </Array>
          </mxGeometry>
        </mxCell>
        <mxCell id="CKBYRObzCNReHmb8ViOX-5" style="edgeStyle=orthogonalEdgeStyle;rounded=0;orthogonalLoop=1;jettySize=auto;html=1;entryX=0.5;entryY=0;entryDx=0;entryDy=0;" edge="1" parent="1" source="CKBYRObzCNReHmb8ViOX-6" target="CKBYRObzCNReHmb8ViOX-9">
          <mxGeometry relative="1" as="geometry">
            <Array as="points">
              <mxPoint x="40" y="460" />
              <mxPoint x="570" y="460" />
            </Array>
          </mxGeometry>
        </mxCell>
        <mxCell id="CKBYRObzCNReHmb8ViOX-6" value="STS元数据管理" style="rounded=1;whiteSpace=wrap;html=1;" vertex="1" parent="1">
          <mxGeometry x="-10" y="480" width="100" height="40" as="geometry" />
        </mxCell>
        <mxCell id="CKBYRObzCNReHmb8ViOX-7" value="HDFS" style="rounded=1;whiteSpace=wrap;html=1;" vertex="1" parent="1">
          <mxGeometry x="170" y="640" width="100" height="40" as="geometry" />
        </mxCell>
        <mxCell id="CKBYRObzCNReHmb8ViOX-8" style="edgeStyle=orthogonalEdgeStyle;rounded=0;orthogonalLoop=1;jettySize=auto;html=1;entryX=0;entryY=0.5;entryDx=0;entryDy=0;" edge="1" parent="1" source="CKBYRObzCNReHmb8ViOX-9" target="CKBYRObzCNReHmb8ViOX-3">
          <mxGeometry relative="1" as="geometry" />
        </mxCell>
        <mxCell id="CKBYRObzCNReHmb8ViOX-9" value="Impala" style="rounded=1;whiteSpace=wrap;html=1;" vertex="1" parent="1">
          <mxGeometry x="520" y="480" width="100" height="40" as="geometry" />
        </mxCell>
        <mxCell id="CKBYRObzCNReHmb8ViOX-10" value="" style="edgeStyle=orthogonalEdgeStyle;rounded=0;orthogonalLoop=1;jettySize=auto;html=1;" edge="1" parent="1" source="CKBYRObzCNReHmb8ViOX-12" target="CKBYRObzCNReHmb8ViOX-7">
          <mxGeometry relative="1" as="geometry" />
        </mxCell>
        <mxCell id="CKBYRObzCNReHmb8ViOX-11" value="" style="edgeStyle=orthogonalEdgeStyle;rounded=0;orthogonalLoop=1;jettySize=auto;html=1;" edge="1" parent="1" source="CKBYRObzCNReHmb8ViOX-12" target="CKBYRObzCNReHmb8ViOX-21">
          <mxGeometry relative="1" as="geometry" />
        </mxCell>
        <mxCell id="CKBYRObzCNReHmb8ViOX-12" value="Flink" style="rounded=1;whiteSpace=wrap;html=1;" vertex="1" parent="1">
          <mxGeometry x="170" y="560" width="100" height="40" as="geometry" />
        </mxCell>
        <mxCell id="CKBYRObzCNReHmb8ViOX-13" value="" style="edgeStyle=orthogonalEdgeStyle;rounded=0;orthogonalLoop=1;jettySize=auto;html=1;" edge="1" parent="1" source="CKBYRObzCNReHmb8ViOX-14" target="CKBYRObzCNReHmb8ViOX-12">
          <mxGeometry relative="1" as="geometry" />
        </mxCell>
        <mxCell id="CKBYRObzCNReHmb8ViOX-14" value="数据湖构建" style="rounded=1;whiteSpace=wrap;html=1;" vertex="1" parent="1">
          <mxGeometry x="170" y="480" width="100" height="40" as="geometry" />
        </mxCell>
        <mxCell id="CKBYRObzCNReHmb8ViOX-15" value="" style="edgeStyle=orthogonalEdgeStyle;rounded=0;orthogonalLoop=1;jettySize=auto;html=1;" edge="1" parent="1" source="CKBYRObzCNReHmb8ViOX-16" target="CKBYRObzCNReHmb8ViOX-12">
          <mxGeometry relative="1" as="geometry" />
        </mxCell>
        <mxCell id="CKBYRObzCNReHmb8ViOX-16" value="Kafka" style="rounded=1;whiteSpace=wrap;html=1;" vertex="1" parent="1">
          <mxGeometry x="-10" y="560" width="100" height="40" as="geometry" />
        </mxCell>
        <mxCell id="CKBYRObzCNReHmb8ViOX-17" value="获取元数据" style="text;html=1;align=center;verticalAlign=middle;resizable=0;points=[];autosize=1;strokeColor=none;fillColor=none;" vertex="1" parent="1">
          <mxGeometry x="90" y="480" width="80" height="20" as="geometry" />
        </mxCell>
        <mxCell id="CKBYRObzCNReHmb8ViOX-18" value="数据接入" style="text;html=1;align=center;verticalAlign=middle;resizable=0;points=[];autosize=1;strokeColor=none;fillColor=none;" vertex="1" parent="1">
          <mxGeometry x="100" y="560" width="60" height="20" as="geometry" />
        </mxCell>
        <mxCell id="CKBYRObzCNReHmb8ViOX-19" value="配置信息提交" style="text;html=1;align=center;verticalAlign=middle;resizable=0;points=[];autosize=1;strokeColor=none;fillColor=none;" vertex="1" parent="1">
          <mxGeometry x="220" y="530" width="90" height="20" as="geometry" />
        </mxCell>
        <mxCell id="CKBYRObzCNReHmb8ViOX-20" style="edgeStyle=orthogonalEdgeStyle;rounded=0;orthogonalLoop=1;jettySize=auto;html=1;entryX=0;entryY=0.5;entryDx=0;entryDy=0;" edge="1" parent="1" source="CKBYRObzCNReHmb8ViOX-21" target="CKBYRObzCNReHmb8ViOX-2">
          <mxGeometry relative="1" as="geometry" />
        </mxCell>
        <mxCell id="CKBYRObzCNReHmb8ViOX-21" value="Hive" style="rounded=1;whiteSpace=wrap;html=1;" vertex="1" parent="1">
          <mxGeometry x="364" y="560" width="100" height="40" as="geometry" />
        </mxCell>
        <mxCell id="CKBYRObzCNReHmb8ViOX-22" value="Schema存储" style="text;html=1;align=center;verticalAlign=middle;resizable=0;points=[];autosize=1;strokeColor=none;fillColor=none;" vertex="1" parent="1">
          <mxGeometry x="270" y="560" width="80" height="20" as="geometry" />
        </mxCell>
        <mxCell id="CKBYRObzCNReHmb8ViOX-23" value="Catalog配置" style="text;html=1;align=center;verticalAlign=middle;resizable=0;points=[];autosize=1;strokeColor=none;fillColor=none;" vertex="1" parent="1">
          <mxGeometry x="490" y="610" width="80" height="20" as="geometry" />
        </mxCell>
        <mxCell id="CKBYRObzCNReHmb8ViOX-24" value="其他表类型查询" style="text;html=1;align=center;verticalAlign=middle;resizable=0;points=[];autosize=1;strokeColor=none;fillColor=none;" vertex="1" parent="1">
          <mxGeometry x="230" y="430" width="100" height="20" as="geometry" />
        </mxCell>
      </root>
    </mxGraphModel>
  </diagram>
</mxfile>
